<?xml version="1.0" encoding="utf-8"?>
<!-- Generator: Adobe Illustrator 16.0.0, SVG Export Plug-In . SVG Version: 6.00 Build 0)  -->
<!DOCTYPE svg PUBLIC "-//W3C//DTD SVG 1.1//EN" "http://www.w3.org/Graphics/SVG/1.1/DTD/svg11.dtd">
<svg version="1.1" id="Layer_1" xmlns="http://www.w3.org/2000/svg" xmlns:xlink="http://www.w3.org/1999/xlink" x="0px" y="0px"
	 width="57.6px" height="86.4px" viewBox="0 0 57.6 86.4" enable-background="new 0 0 57.6 86.4" xml:space="preserve">
<path fill="#FFFFFF" stroke="#000000" stroke-miterlimit="10" d="M28.8,5.2c-13.255,0-24,10.745-24,24
	c0,6.833,5.664,14.93,7.441,17.363C23.3,61.7,28.8,85.2,28.8,85.2s6.5-23.5,16.559-38.637C47.274,43.682,52.8,36.033,52.8,29.2
	C52.8,15.945,42.056,5.2,28.8,5.2z"/>
<g id="g6547" transform="matrix(1.688625,0,0,1.688625,-0.404256,0.14628)">
	<path id="path12" fill="#00FF12" d="M24.165,27.723l-0.116,0.017l-0.112,0.014l-0.108,0.012l-0.103,0.009l-0.1,0.007l-0.095,0.004
		l-0.092,0.002h-0.088l-0.084-0.003l-0.08-0.005l-0.077-0.006l-0.073-0.009l-0.071-0.012l-0.067-0.013l-0.064-0.015l-0.06-0.017
		l-0.058-0.02l-0.054-0.022l-0.051-0.023l-0.049-0.025l-0.046-0.027l-0.044-0.029l-0.04-0.031l-0.038-0.032l-0.036-0.034
		l-0.034-0.036l-0.031-0.038l-0.029-0.039l-0.027-0.04l-0.024-0.043l-0.044-0.088l-0.037-0.094l-0.03-0.1l-0.024-0.105l-0.018-0.111
		l-0.013-0.115l-0.01-0.118l-0.006-0.124l-0.003-0.127l-0.001-0.13l0.001-0.133l0.002-0.136l0.003-0.138l0.003-0.285l0.001-0.145
		l-0.152-3.213l-0.633,2.966c-0.133,0.55-0.283,1.067,0.516,1.483c0.567,0.501-0.067,1.184-0.683,1.101
		c-1.849,0.066-1.583-1.166-1.416-2.034l0.1-1.267l0.3-2.583l-0.25-0.65c-2.016-0.516-3.383-0.9-4.932-1.733l-1.1,0.15
		c-0.516,0.083-0.383,0.667-0.433,1.05l-0.167,1.051l-0.916,2.383L12.2,24.224c-0.067,0.167-0.05,0.817,0.183,1.15l0.5,1
		c0.367,0.549,0.467,1.949-0.566,1.499h0.017l-0.767-0.316c-0.55-0.233-1-1.749-1.2-2.849l0.034-1.567
		c-0.483-0.132-0.683,2.65-0.483,3.233l0.483,1.449c0.133,0.466-0.417,0.634-0.8,0.634c-0.9,0-1.3-0.917-1.483-1.684L7.984,26.19
		c-0.233-0.883-0.117-2.233,0.333-3.016l0.233-0.483c0.383-0.966-0.117-1.65-0.233-2.15c-0.383-1.566-0.7-3.083,0.383-4.582
		l0.1-0.116c-0.05-0.117-0.367-0.367-0.55-0.951c-0.417-1.333-0.783-3.516-0.267-3.516l0.35-0.017c0.866,0,0.6,3.599,1.65,3.366
		l7.498,0.083l1.333-0.366c0.467-0.134,0.884-0.434,1.316-0.701l0.867-0.533c0.966,0.983,1.833,1.6,3.25,2.116
		c0.383,2.933-0.05,3.584-0.416,5.333l-0.134,0.717c-0.283,1.25-0.367,2.55-0.3,3.849l0.034,0.6
		c-0.034,0.616,0.333,0.667,0.817,0.818C24.565,26.807,24.782,27.423,24.165,27.723h0.016H24.165z"/>
	<path id="path14" fill="#00FF12" d="M25.765,9.76l0.037,0.028l0.039,0.028l0.079,0.06l0.081,0.064l0.083,0.069l0.084,0.072
		l0.084,0.075l0.087,0.078l0.087,0.08l0.087,0.083l0.087,0.083l0.171,0.171l0.084,0.086l0.083,0.086l0.081,0.085l0.079,0.086
		l0.533,0.566c0.334,0.35,0.85,0.3,1.299,0.4l0.184,0.016c0.483,0.267,0.333,0.801,0.167,1.2l-0.1,0.251
		c-0.483,1.149-1.883,1.232-2.883,0.699l-0.433-0.233h-0.15l-0.317,0.2l-0.616,0.501c-1.3-0.566-2.35-1.234-3.183-2.134l1.933-2.433
		l0.649-0.933l0.134-0.317l0.15-0.349c0,0,0.6-0.751,0.95-0.601c0.35,0.151,0.566,0.8,0.483,1.133l-0.099,0.4L25.765,9.76h0.016"/>
</g>
</svg>
